<?xml version="1.0" standalone="no"?><!DOCTYPE svg PUBLIC "-//W3C//DTD SVG 1.1//EN" "http://www.w3.org/Graphics/SVG/1.1/DTD/svg11.dtd"><svg t="1591058482712" class="icon" viewBox="0 0 1024 1024" version="1.1" xmlns="http://www.w3.org/2000/svg" p-id="5367" xmlns:xlink="http://www.w3.org/1999/xlink" width="16" height="16"><defs><style type="text/css"></style></defs><path d="M898.133333 98.133333C774.4 49.066667 657.066667 23.466667 512 23.466667c-145.066667 0-262.4 27.733333-386.133333 74.666666C102.4 108.8 85.333333 132.266667 85.333333 157.866667v401.066666C85.333333 768 384 945.066667 484.266667 994.133333c17.066667 8.533333 38.4 8.533333 57.6 0C640 945.066667 938.666667 768 938.666667 558.933333V157.866667c0-25.6-17.066667-49.066667-40.533334-59.733334z m-91.733333 228.266667L488.533333 644.266667c-8.533333 8.533333-21.333333 8.533333-29.866666 0L262.4 448c-8.533333-8.533333-8.533333-21.333333 0-29.866667 8.533333-8.533333 21.333333-8.533333 29.866667 0l181.333333 181.333334 300.8-302.933334c8.533333-8.533333 21.333333-8.533333 29.866667 0 10.666667 8.533333 10.666667 21.333333 2.133333 29.866667z" fill="#BFBFBF" p-id="5368"></path></svg>