<?xml version="1.0" standalone="no"?><!DOCTYPE svg PUBLIC "-//W3C//DTD SVG 1.1//EN" "http://www.w3.org/Graphics/SVG/1.1/DTD/svg11.dtd"><svg t="1591004023727" class="icon" viewBox="0 0 1024 1024" version="1.1" xmlns="http://www.w3.org/2000/svg" p-id="6000" xmlns:xlink="http://www.w3.org/1999/xlink" width="16" height="16"><defs><style type="text/css"></style></defs><path d="M585.8 127.5c-9.7-5.2-21.5-4.6-30.7 1.5L204.3 362.8H79c-8.3 0-15 6.7-15 15v268.5c0 8.3 6.7 15 15 15h125.3L555.2 895c5 3.3 10.8 5 16.6 5 4.9 0 9.7-1.2 14.1-3.6 9.7-5.2 15.8-15.3 15.8-26.3V153.8c-0.1-11-6.2-21.1-15.9-26.3z m-417.3 474h-29.7c-8.3 0-15-6.7-15-15v-149c0-8.3 6.7-15 15-15h29.7c8.3 0 15 6.7 15 15v149.1c0 8.2-6.7 14.9-15 14.9zM827.6 264c-13.7-9.2-32.3-5.5-41.4 8.1-9.2 13.7-5.5 32.2 8.1 41.4 66.4 44.5 106 118.7 106 198.4 0 79.5-39.4 153.5-105.4 198-13.7 9.2-17.3 27.7-8 41.4 5.8 8.5 15.2 13.1 24.8 13.1 5.7 0 11.6-1.6 16.7-5.1C910.8 703.8 960 611.3 960 512c0-99.7-49.5-192.4-132.4-248z" fill="#E4393C" p-id="6001"></path><path d="M733.3 358.3c-13.7-9.2-32.2-5.5-41.4 8.1-9.2 13.7-5.5 32.2 8.1 41.4 34.8 23.3 55.6 62.3 55.6 104.1 0 41.7-20.6 80.5-55.3 103.9-13.7 9.2-17.3 27.7-8 41.4 5.8 8.6 15.2 13.2 24.8 13.2 5.7 0 11.6-1.6 16.7-5.1 51.1-34.4 81.6-91.8 81.6-153.3-0.1-61.8-30.7-119.2-82.1-153.7z" fill="#E4393C" p-id="6002"></path></svg>