<?xml version="1.0" standalone="no"?><!DOCTYPE svg PUBLIC "-//W3C//DTD SVG 1.1//EN" "http://www.w3.org/Graphics/SVG/1.1/DTD/svg11.dtd"><svg t="1591059394669" class="icon" viewBox="0 0 1024 1024" version="1.1" xmlns="http://www.w3.org/2000/svg" p-id="12365" xmlns:xlink="http://www.w3.org/1999/xlink" width="16" height="16"><defs><style type="text/css"></style></defs><path d="M247.466667 853.333333c0-22.698667 3.925333-78.574933 11.844266-168.8576-72.123733-58.299733-114.244267-139.4688-114.244266-226.781866C145.066667 283.989333 310.237867 145.066667 512 145.066667s366.933333 138.922667 366.933333 312.661333-165.1712 312.593067-366.933333 312.593067c-23.005867 0-101.819733 35.84-226.474667 105.3696A25.6 25.6 0 0 1 247.466667 853.333333z m64.068266-178.244266c-5.12 57.856-8.738133 102.570667-10.786133 133.768533 110.933333-60.3136 178.9952-89.736533 211.2512-89.736533 175.274667 0 315.733333-118.101333 315.733333-261.4272 0-143.291733-140.458667-261.4272-315.733333-261.4272s-315.733333 118.101333-315.733333 261.461333c0 74.888533 38.434133 145.066667 105.028266 194.56a25.6 25.6 0 0 1 10.24 22.801067zM375.466667 435.2a25.6 25.6 0 1 1 0-51.2h273.066666a25.6 25.6 0 1 1 0 51.2h-273.066666z m0 136.533333a25.6 25.6 0 1 1 0-51.2h273.066666a25.6 25.6 0 1 1 0 51.2h-273.066666z" p-id="12366" fill="#D0D0D0"></path></svg>