<?xml version="1.0" standalone="no"?><!DOCTYPE svg PUBLIC "-//W3C//DTD SVG 1.1//EN" "http://www.w3.org/Graphics/SVG/1.1/DTD/svg11.dtd"><svg t="1592879246746" class="icon" viewBox="0 0 1024 1024" version="1.1" xmlns="http://www.w3.org/2000/svg" p-id="16021" xmlns:xlink="http://www.w3.org/1999/xlink" width="200" height="200"><defs><style type="text/css"></style></defs><path d="M901.154792 271.988808c0-41.749975-61.294694-40.010393-61.294694 0l0 542.749675c0 13.916658-11.256121 25.172779-25.172779 25.172779l-551.549915 0c-36.531228-0.102328-79.09983-29.470571-79.09983-80.737084 0-43.694214 30.084541-80.737084 65.592485-80.737084l502.636954 0c16.884181 0 30.596183-13.712002 30.596183-30.596183L782.863196 153.492555c0-16.884181-13.609673-30.698511-30.596183-30.698511 0 0 0 0-0.102328 0L752.164685 122.794044l-0.102328 0L307.138603 122.794044C205.526531 122.794044 122.845208 205.475367 122.845208 307.087439l0 453.621665c0 4.502448 3.376836 29.470571 3.479165 30.391526 12.995703 62.931948 63.238933 110.002998 123.408014 110.002998l565.05726 0c47.68502-0.102328 86.365144-38.680124 86.467473-86.467473L901.25712 271.988808z" p-id="16022" fill="#df3333"></path><path d="M752.369341 728.577995 323.715799 728.577995c-42.261617 0-40.215049 61.294694 0 61.294694l428.653543 0C791.868092 789.872689 795.449585 728.577995 752.369341 728.577995z" p-id="16023" fill="#df3333"></path></svg>