<?xml version="1.0" standalone="no"?><!DOCTYPE svg PUBLIC "-//W3C//DTD SVG 1.1//EN" "http://www.w3.org/Graphics/SVG/1.1/DTD/svg11.dtd"><svg t="1592879471282" class="icon" viewBox="0 0 1024 1024" version="1.1" xmlns="http://www.w3.org/2000/svg" p-id="19264" xmlns:xlink="http://www.w3.org/1999/xlink" width="200" height="200"><defs><style type="text/css"></style></defs><path d="M689.066667 85.333333h-520.533334c-28.16 0-51.2 23.04-51.2 51.2v750.933334c0 28.16 23.04 51.2 51.2 51.2h520.533334c28.16 0 51.2-23.04 51.2-51.2V136.533333c0-28.16-23.04-51.2-51.2-51.2z m-366.933334 426.666667h-102.4c-18.773333 0-34.133333-15.36-34.133333-34.133333s15.36-34.133333 34.133333-34.133334h102.4c18.773333 0 34.133333 15.36 34.133334 34.133334s-15.36 34.133333-34.133334 34.133333z m154.026667-119.466667h-256c-18.773333 0-34.133333-15.36-34.133333-34.133333s15.36-34.133333 34.133333-34.133333h256c18.773333 0 34.133333 15.36 34.133333 34.133333s-15.36 34.133333-34.133333 34.133333z m136.533333-119.466666h-392.533333c-18.773333 0-34.133333-15.36-34.133333-34.133334s15.36-34.133333 34.133333-34.133333h392.533333c18.773333 0 34.133333 15.36 34.133334 34.133333s-15.36 34.133333-34.133334 34.133334z" fill="#df3333" p-id="19265"></path><path d="M855.466667 358.4h-115.2v68.266667h98.133333v443.733333h-98.133333v17.066667c0 28.16-23.04 51.2-51.2 51.2h166.4c28.16 0 51.2-23.04 51.2-51.2V409.6c0-28.16-23.04-51.2-51.2-51.2z" fill="#df3333" p-id="19266"></path></svg>