<svg class="icon" viewBox="0 0 1024 1024" version="1.1"
     xmlns="http://www.w3.org/2000/svg" width="48" height="48">
  <defs>
    <style type="text/css"/>
  </defs>
  <path d="M832.128 219.733333c5.589333 0 10.965333 2.176 14.933333 6.101334A20.693333 20.693333 0 0 1 853.333333 240.64v542.677333a20.778667 20.778667 0 0 1-20.778666 20.778667H191.445333A20.778667 20.778667 0 0 1 170.666667 783.317333V240.512a20.778667 20.778667 0 0 1 20.778666-20.778667h640.682667zM219.989333 268.416v486.997333h217.6V268.373333h-217.6z m584.362667 486.997333V268.373333h-318.08v486.997334h318.08zM367.274667 363.093333a7.808 7.808 0 0 1 0 11.861334L310.357333 418.773333c-4.864 3.669333-11.861333 0.298667-11.861333-5.76V325.333333c0-6.058667 6.997333-9.386667 11.861333-5.76l56.917334 43.52z m173.184 31.957334a12.202667 12.202667 0 0 1-12.16-12.202667v-24.32c0-6.698667 5.461333-12.202667 12.16-12.202667h211.2c6.698667 0 12.202667 5.205333 12.202666 12.202667v24.32a12.202667 12.202667 0 0 1-12.202666 12.202667h-211.2z m0 134.229333a12.202667 12.202667 0 0 1-12.16-12.202667v-24.32c0-6.698667 5.461333-12.202667 12.16-12.202666h211.2c6.698667 0 12.202667 5.205333 12.202666 12.202666v24.32a12.202667 12.202667 0 0 1-12.202666 12.202667h-211.2z m0 133.888a12.202667 12.202667 0 0 1-12.16-12.16v-24.32c0-6.741333 5.461333-12.202667 12.16-12.202667h211.2c6.698667 0 12.202667 5.162667 12.202666 12.16v24.32a12.202667 12.202667 0 0 1-12.202666 12.202667h-211.2z" fill="#8a8a8a"/>
</svg>
