<svg class="icon" viewBox="0 0 1024 1024" version="1.1"
     xmlns="http://www.w3.org/2000/svg" width="48" height="48">
  <defs>
    <style type="text/css"/>
  </defs>
  <path d="M512 0C229.23 0 0 229.23 0 512s229.23 512 512 512 512-229.23 512-512S794.77 0 512 0z m0 918.152c-41.542 0-75.226-33.685-75.226-75.226 0-41.544 33.683-75.226 75.226-75.226s75.227 33.682 75.227 75.226c0 41.542-33.684 75.226-75.227 75.226z m0-238.766c-74.173 0-75.226-456.767-75.226-498.312 0-41.542 33.683-75.226 75.226-75.226s75.227 33.684 75.227 75.226c0 41.545-1.053 498.312-75.227 498.312z" fill="#d81e06"/>
</svg>
