<svg class="icon" viewBox="0 0 1024 1024" version="1.1"
     xmlns="http://www.w3.org/2000/svg" width="48" height="48">
  <defs>
    <style type="text/css"/>
  </defs>
  <path d="M855.5 128h-279c-10.8 0-21 4.2-28.6 11.8L139.8 547.9c-15.8 15.8-15.8 41.4 0 57.2l279 279c7.6 7.6 17.8 11.8 28.6 11.8s21-4.2 28.6-11.8L884.1 476c7.6-7.6 11.9-17.8 11.9-28.6v-279c0-22.2-18.2-40.4-40.5-40.4z m-10.1 315.3L447.5 841.2 182.8 576.5l397.9-397.9h264.7v264.7z" fill="#8a8a8a"/>
  <path d="M610.5 413.4c19.7 19.7 45.8 30.5 73.6 30.5 27.8 0 54-10.8 73.6-30.5 19.7-19.7 30.5-45.8 30.5-73.6 0-27.8-10.8-54-30.5-73.6-19.7-19.7-45.8-30.5-73.6-30.5-27.8 0-54 10.8-73.6 30.5-19.6 19.6-30.5 45.8-30.5 73.6 0 27.8 10.9 54 30.5 73.6zM646.3 302c10.1-10.1 23.6-15.7 37.8-15.7 14.3 0 27.7 5.6 37.9 15.7 10.1 10.1 15.7 23.6 15.7 37.9 0 14.3-5.6 27.7-15.7 37.9-10.1 10.1-23.5 15.7-37.8 15.7-14.3 0-27.7-5.6-37.8-15.7-10.1-10.1-15.7-23.6-15.7-37.8 0-14.5 5.5-27.9 15.6-38z" fill="#8a8a8a"/>
</svg>
