<svg class="icon" viewBox="0 0 1024 1024" version="1.1"
     xmlns="http://www.w3.org/2000/svg" width="48" height="48">
  <defs>
    <style type="text/css"/>
  </defs>
  <path d="M771.44 408.94c-22.02 0-43.65 4.35-63.7 12.61a166.412 166.412 0 0 0-69.99-56.92c-7.47-114.59-103.08-205.55-219.53-205.55-121.31 0-220 98.69-220 220 0 2.24 0.03 4.49 0.1 6.73-67.31 28.65-113 95.35-113 171.09 0 102.52 83.41 185.92 185.92 185.92 10.49 0 27.67-0.4 28.4-0.41l-1.98-85.31c-0.17 0-16.92 0.39-26.42 0.39-55.47 0-100.59-45.13-100.59-100.59 0-48.41 34.46-89.99 81.95-98.86l42.98-8.03-9.08-42.77c-1.96-9.21-2.95-18.68-2.95-28.15 0-74.25 60.41-134.66 134.66-134.66s134.66 60.41 134.66 134.66c0 4.15-0.2 8.43-0.6 12.72l-3.6 38.54 38 7.32c29.83 5.75 53.86 27.4 62.73 56.5l19.06 62.58 49.59-42.67a81.862 81.862 0 0 1 53.38-19.79c45.16 0 81.9 36.74 81.9 81.9 0 43.85-39.08 80.9-85.33 80.9v85.33c94.11 0 170.67-74.57 170.67-166.24 0-92.23-75.02-167.24-167.23-167.24z" fill="#8a8a8a"/>
  <path d="M373.73 654l63.21 57.33 54.31-59.87-0.58 244.44 85.33 0.2 0.58-244.14 52.96 59.17 63.58-56.92-158.74-177.32z" fill="#8a8a8a"/>
</svg>
